<svg width="20" height="20" viewBox="0 0 20 20" fill="none" xmlns="http://www.w3.org/2000/svg">
<circle cx="10" cy="10" r="10" fill="#CCCCCC"/>
<path fill-rule="evenodd" clip-rule="evenodd" d="M13.9225 6.07676C14.2479 6.4022 14.2479 6.92983 13.9225 7.25527L7.2558 13.9219C6.93036 14.2474 6.40272 14.2474 6.07729 13.9219C5.75185 13.5965 5.75185 13.0689 6.07728 12.7434L12.744 6.07676C13.0694 5.75132 13.597 5.75132 13.9225 6.07676Z" fill="white"/>
<path fill-rule="evenodd" clip-rule="evenodd" d="M6.07754 6.07676C5.7521 6.4022 5.7521 6.92983 6.07754 7.25527L12.7442 13.9219C13.0696 14.2474 13.5973 14.2474 13.9227 13.9219C14.2482 13.5965 14.2482 13.0689 13.9227 12.7434L7.25605 6.07676C6.93061 5.75132 6.40297 5.75132 6.07754 6.07676Z" fill="white"/>
</svg>
