<svg width="24" height="24" viewBox="0 0 24 24" fill="none" xmlns="http://www.w3.org/2000/svg">
<circle cx="12" cy="12" r="12" fill="#F5F5F5"/>
<path fill-rule="evenodd" clip-rule="evenodd" d="M16.707 7.29289C17.0975 7.68342 17.0975 8.31658 16.707 8.70711L8.70696 16.7071C8.31643 17.0976 7.68327 17.0976 7.29274 16.7071C6.90222 16.3166 6.90222 15.6834 7.29274 15.2929L15.2927 7.29289C15.6833 6.90237 16.3164 6.90237 16.707 7.29289Z" fill="#6B6C70"/>
<path fill-rule="evenodd" clip-rule="evenodd" d="M7.29304 7.29289C6.90252 7.68342 6.90252 8.31658 7.29304 8.70711L15.293 16.7071C15.6836 17.0976 16.3167 17.0976 16.7073 16.7071C17.0978 16.3166 17.0978 15.6834 16.7073 15.2929L8.70726 7.29289C8.31673 6.90237 7.68357 6.90237 7.29304 7.29289Z" fill="#6B6C70"/>
</svg>
