<svg width="42" height="40" viewBox="0 0 42 40" fill="none" xmlns="http://www.w3.org/2000/svg">
<path fill-rule="evenodd" clip-rule="evenodd" d="M33.7071 14.2929C33.3166 13.9024 32.6834 13.9024 32.2929 14.2929C31.9024 14.6834 31.9024 15.3166 32.2929 15.7071L35.5858 19H12.9753C12.7245 16.4733 10.5927 14.5 8 14.5C5.23858 14.5 3 16.7386 3 19.5C3 22.2614 5.23858 24.5 8 24.5C10.2388 24.5 12.134 23.0286 12.7711 21H35.5858L32.2929 24.2929C31.9024 24.6834 31.9024 25.3166 32.2929 25.7071C32.6834 26.0976 33.3166 26.0976 33.7071 25.7071L38.7071 20.7071L39.4142 20L38.7071 19.2929L33.7071 14.2929ZM11 19.5C11 21.1569 9.65685 22.5 8 22.5C6.34315 22.5 5 21.1569 5 19.5C5 17.8431 6.34315 16.5 8 16.5C9.65685 16.5 11 17.8431 11 19.5Z" fill="white"/>
</svg>
