<svg width="40" height="40" viewBox="0 0 40 40" fill="none" xmlns="http://www.w3.org/2000/svg">
<rect x="4" y="12" width="32" height="8" rx="3" fill="#E6A534"/>
<path d="M6 7C6 5.34315 7.34315 4 9 4H31C32.6569 4 34 5.34315 34 7V23C34 24.6569 32.6569 26 31 26H9C7.34315 26 6 24.6569 6 23V7Z" fill="white"/>
<path fill-rule="evenodd" clip-rule="evenodd" d="M31 4.92857H9C7.85598 4.92857 6.92857 5.85598 6.92857 7V23C6.92857 24.144 7.85598 25.0714 9 25.0714H31C32.144 25.0714 33.0714 24.144 33.0714 23V7C33.0714 5.85598 32.144 4.92857 31 4.92857ZM9 4C7.34315 4 6 5.34315 6 7V23C6 24.6569 7.34315 26 9 26H31C32.6569 26 34 24.6569 34 23V7C34 5.34315 32.6569 4 31 4H9Z" fill="#EFF0F2"/>
<path d="M18.6983 24.8219L4 16V35C4 36.1046 4.89543 37 6 37H34C35.1046 37 36 36.1046 36 35V16L20.7294 24.8381C20.0998 25.2024 19.322 25.1963 18.6983 24.8219Z" fill="#FCC602"/>
<path fill-rule="evenodd" clip-rule="evenodd" d="M14.5554 10.0551C15.0558 9.8784 15.6047 10.1409 15.7814 10.6413L17.4378 15.3332L19.0941 10.6413C19.2297 10.2572 19.5929 10.0003 20.0003 10.0003C20.4076 10.0003 20.7708 10.2572 20.9064 10.6413L22.5628 15.3332L24.2191 10.6413C24.3958 10.1409 24.9447 9.8784 25.4451 10.0551C25.9456 10.2317 26.208 10.7806 26.0314 11.2811L23.4689 18.5397C23.3333 18.9238 22.9701 19.1807 22.5628 19.1807C22.1554 19.1807 21.7922 18.9238 21.6566 18.5397L20.0003 13.8478L18.3439 18.5397C18.2083 18.9238 17.8452 19.1807 17.4378 19.1807C17.0304 19.1807 16.6672 18.9238 16.5316 18.5397L13.9691 11.2811C13.7925 10.7806 14.0549 10.2317 14.5554 10.0551Z" fill="#FF8900"/>
<path fill-rule="evenodd" clip-rule="evenodd" d="M22.9229 15.1348C22.9229 14.6041 23.3531 14.1738 23.8838 14.1738H26.4066C26.9374 14.1738 27.3676 14.6041 27.3676 15.1348C27.3676 15.6655 26.9374 16.0957 26.4066 16.0957H23.8838C23.3531 16.0957 22.9229 15.6655 22.9229 15.1348Z" fill="#FF8900"/>
<path fill-rule="evenodd" clip-rule="evenodd" d="M12.6328 15.1348C12.6328 14.6041 13.063 14.1738 13.5937 14.1738L16.325 14.1738C16.8557 14.1738 17.2859 14.6041 17.2859 15.1348C17.2859 15.6655 16.8557 16.0957 16.325 16.0957H13.5937C13.063 16.0957 12.6328 15.6655 12.6328 15.1348Z" fill="#FF8900"/>
</svg>
