<svg width="40" height="40" viewBox="0 0 40 40" fill="none" xmlns="http://www.w3.org/2000/svg">
<rect x="2.79785" y="24.7969" width="13.1966" height="6.127" rx="1.17827" fill="#FF8A00"/>
<rect x="4.21094" y="18.6719" width="13.1966" height="6.127" rx="1.17827" fill="#FFA800"/>
<rect x="2.32617" y="12.543" width="15.0819" height="6.127" rx="1.17827" fill="#FDC600"/>
<rect x="4.21094" y="6.41602" width="20.2662" height="6.127" rx="1.17827" fill="#FED500"/>
<circle cx="24.4779" cy="22.9115" r="13.1966" fill="#FFE500"/>
<circle cx="24.4772" cy="22.9117" r="10.3688" fill="#FFA800"/>
<path fill-rule="evenodd" clip-rule="evenodd" d="M28.8174 18.5701C29.3926 19.1452 29.3926 20.0778 28.8174 20.653L22.2191 27.2513C21.6439 27.8265 20.7114 27.8265 20.1362 27.2513C19.561 26.6761 19.561 25.7435 20.1362 25.1684L26.7345 18.5701C27.3097 17.9949 28.2423 17.9949 28.8174 18.5701Z" fill="white"/>
<circle cx="21.1779" cy="19.6115" r="1.47284" fill="white"/>
<circle cx="27.7775" cy="26.2111" r="1.47284" fill="white"/>
</svg>
