<svg width="40" height="40" viewBox="0 0 40 40" fill="none" xmlns="http://www.w3.org/2000/svg">
<path d="M34.5 8.5V27.5L26.5 36H9C6.79086 36 5 34.2091 5 32V8.5C5 6.29086 6.79086 4.5 9 4.5H30.5C32.7091 4.5 34.5 6.29086 34.5 8.5Z" fill="#7FC8AE"/>
<path d="M29.5 27.5H34.5L26.5 36V30.5C26.5 28.8431 27.8431 27.5 29.5 27.5Z" fill="#007862"/>
<path fill-rule="evenodd" clip-rule="evenodd" d="M9.98169 13C9.98169 12.1716 10.6533 11.5 11.4817 11.5H28.5183C29.3467 11.5 30.0183 12.1716 30.0183 13C30.0183 13.8284 29.3467 14.5 28.5183 14.5H11.4817C10.6533 14.5 9.98169 13.8284 9.98169 13ZM9.98169 19.5C9.98169 18.6716 10.6533 18 11.4817 18H28.5183C29.3467 18 30.0183 18.6716 30.0183 19.5C30.0183 20.3284 29.3467 21 28.5183 21H11.4817C10.6533 21 9.98169 20.3284 9.98169 19.5ZM9.98169 26C9.98169 25.1716 10.6533 24.5 11.4817 24.5H20.5011C21.3295 24.5 22.0011 25.1716 22.0011 26C22.0011 26.8284 21.3295 27.5 20.5011 27.5H11.4817C10.6533 27.5 9.98169 26.8284 9.98169 26Z" fill="#007862"/>
</svg>
