<svg width="40" height="40" viewBox="0 0 40 40" fill="none" xmlns="http://www.w3.org/2000/svg">
<path d="M4.5 33.5V21.1C4.5 20.7686 4.76863 20.5 5.1 20.5H11.8768C11.9581 20.5 12.0385 20.4835 12.1132 20.4515L22.4393 16.026C22.4797 16.0087 22.518 15.9871 22.5536 15.9614L34.0494 7.68442C34.4463 7.39866 35 7.68228 35 8.17134V33.5C35 34.6046 34.1046 35.5 33 35.5H6.5C5.39543 35.5 4.5 34.6046 4.5 33.5Z" fill="#FFB7A7"/>
<path fill-rule="evenodd" clip-rule="evenodd" d="M22.8501 6.49961C22.8501 5.58834 23.5888 4.84961 24.5001 4.84961H33.5001C34.4114 4.84961 35.1501 5.58834 35.1501 6.49961V15.4996C35.1501 16.4109 34.4114 17.1496 33.5001 17.1496C32.5888 17.1496 31.8501 16.4109 31.8501 15.4996V8.14961H24.5001C23.5888 8.14961 22.8501 7.41088 22.8501 6.49961Z" fill="#FE4C00"/>
<path fill-rule="evenodd" clip-rule="evenodd" d="M34.8047 7.50977C35.3626 6.78921 35.2307 5.75285 34.5101 5.19499C33.7896 4.63714 32.7532 4.76904 32.1954 5.4896C23.0148 17.3479 9.88728 19.3186 4.64508 18.8561L4.5 18.8433V22.1554C10.671 22.6451 24.864 20.3499 34.8047 7.50977Z" fill="#FE4C00"/>
</svg>
