<svg width="44" height="44" viewBox="0 0 44 44" fill="none" xmlns="http://www.w3.org/2000/svg">
<path fill-rule="evenodd" clip-rule="evenodd" d="M13.25 22.5C13.25 22.0858 13.5858 21.75 14 21.75H31C31.4142 21.75 31.75 22.0858 31.75 22.5C31.75 22.9142 31.4142 23.25 31 23.25H14C13.5858 23.25 13.25 22.9142 13.25 22.5Z" fill="#191919"/>
<path fill-rule="evenodd" clip-rule="evenodd" d="M21.0303 14.4697C21.3232 14.7626 21.3232 15.2374 21.0303 15.5303L14.0607 22.5L21.0303 29.4697C21.3232 29.7626 21.3232 30.2374 21.0303 30.5303C20.7374 30.8232 20.2626 30.8232 19.9697 30.5303L12.4697 23.0303C12.1768 22.7374 12.1768 22.2626 12.4697 21.9697L19.9697 14.4697C20.2626 14.1768 20.7374 14.1768 21.0303 14.4697Z" fill="#191919"/>
</svg>
