<svg width="44" height="44" viewBox="0 0 44 44" fill="none" xmlns="http://www.w3.org/2000/svg">
<path fill-rule="evenodd" clip-rule="evenodd" d="M24.4997 26.769L28.5714 30.8407C28.9792 31.2485 29.6403 31.2485 30.0481 30.8407C30.456 30.4329 30.456 29.7717 30.0481 29.3639L15.4286 14.7444C15.0208 14.3366 14.3597 14.3366 13.9519 14.7444C13.544 15.1522 13.544 15.8134 13.9519 16.2212L17.6011 19.8704L16.0347 21.7665C15.6972 22.1751 15.9878 22.7921 16.5178 22.7921H20.1662C20.2939 22.7921 20.3917 22.9057 20.3727 23.0319L19.1596 31.1195C19.0668 31.7383 19.8387 32.096 20.2507 31.625L24.4997 26.769ZM26.4279 24.5653L19.4703 17.6076L23.7841 12.3857C24.1794 11.9071 24.9552 12.233 24.8902 12.8503L24.0878 20.4729C24.0748 20.5962 24.1715 20.7036 24.2955 20.7036H28.4261C28.9644 20.7036 29.2521 21.3376 28.8976 21.7428L26.4279 24.5653Z" fill="white"/>
</svg>
