<svg width="44" height="44" viewBox="0 0 44 44" fill="none" xmlns="http://www.w3.org/2000/svg">
<path fill-rule="evenodd" clip-rule="evenodd" d="M22 30.5C26.6944 30.5 30.5 26.6944 30.5 22C30.5 17.3056 26.6944 13.5 22 13.5C17.3056 13.5 13.5 17.3056 13.5 22C13.5 26.6944 17.3056 30.5 22 30.5ZM22 32C27.5228 32 32 27.5228 32 22C32 16.4772 27.5228 12 22 12C16.4772 12 12 16.4772 12 22C12 27.5228 16.4772 32 22 32Z" fill="#191919"/>
<path fill-rule="evenodd" clip-rule="evenodd" d="M22.0004 21.0996C22.4974 21.0996 22.9004 21.5026 22.9004 21.9996L22.9004 25.9996C22.9004 26.4967 22.4974 26.8996 22.0004 26.8996C21.5033 26.8996 21.1004 26.4967 21.1004 25.9996L21.1004 21.9996C21.1004 21.5026 21.5033 21.0996 22.0004 21.0996Z" fill="#191919"/>
<circle cx="22" cy="19" r="1" fill="#191919"/>
</svg>
