<svg width="44" height="44" viewBox="0 0 44 44" fill="none" xmlns="http://www.w3.org/2000/svg">
<path fill-rule="evenodd" clip-rule="evenodd" d="M12 21H32V22.5H12V21Z" fill="#191919"/>
<path fill-rule="evenodd" clip-rule="evenodd" d="M14.75 13.5C14.0596 13.5 13.5 14.0596 13.5 14.75V18H12V14.75C12 13.2312 13.2312 12 14.75 12H18V13.5H14.75Z" fill="#191919"/>
<path fill-rule="evenodd" clip-rule="evenodd" d="M30.5 14.75C30.5 14.0596 29.9404 13.5 29.25 13.5L26 13.5L26 12L29.25 12C30.7688 12 32 13.2312 32 14.75L32 18L30.5 18L30.5 14.75Z" fill="#191919"/>
<path fill-rule="evenodd" clip-rule="evenodd" d="M29.25 30.5C29.9404 30.5 30.5 29.9404 30.5 29.25L30.5 26L32 26L32 29.25C32 30.7688 30.7688 32 29.25 32L26 32L26 30.5L29.25 30.5Z" fill="#191919"/>
<path fill-rule="evenodd" clip-rule="evenodd" d="M13.5 29.25C13.5 29.9404 14.0596 30.5 14.75 30.5L18 30.5L18 32L14.75 32C13.2312 32 12 30.7688 12 29.25L12 26L13.5 26L13.5 29.25Z" fill="#191919"/>
</svg>
