<svg width="44" height="44" viewBox="0 0 44 44" fill="none" xmlns="http://www.w3.org/2000/svg">
<path fill-rule="evenodd" clip-rule="evenodd" d="M27.5 21C27.5 24.5899 24.5899 27.5 21 27.5C17.4101 27.5 14.5 24.5899 14.5 21C14.5 17.4101 17.4101 14.5 21 14.5C24.5899 14.5 27.5 17.4101 27.5 21ZM26.1349 27.1348C24.7454 28.2991 22.9545 29 21 29C16.5817 29 13 25.4183 13 21C13 16.5817 16.5817 13 21 13C25.4183 13 29 16.5817 29 21C29 22.9236 28.3211 24.6886 27.1898 26.0685L30.773 29.6516C31.0659 29.9445 31.0659 30.4194 30.773 30.7123C30.4801 31.0052 30.0052 31.0052 29.7123 30.7123L26.1349 27.1348Z" fill="#191919"/>
</svg>
