<svg width="44" height="44" viewBox="0 0 44 44" fill="none" xmlns="http://www.w3.org/2000/svg">
<path fill-rule="evenodd" clip-rule="evenodd" d="M16.0424 14.8144C14.6151 16.112 13.75 17.9975 13.75 20.3721C13.75 21.7103 14.2457 23.062 15.0456 24.366C15.8441 25.6678 16.9207 26.8809 18.0176 27.927C19.1121 28.9708 20.2098 29.8322 21.0352 30.4332C21.4406 30.7284 21.7787 30.9595 22.0163 31.1175C22.2529 30.9723 22.5868 30.7611 22.986 30.491C23.8101 29.9336 24.9056 29.1304 25.9977 28.1454C28.2279 26.1338 30.25 23.5366 30.25 20.8372C30.25 16.1267 26.8309 12.75 22 12.75C19.5367 12.75 17.4773 13.5101 16.0424 14.8144ZM22 32C21.607 32.6388 21.6068 32.6386 21.6065 32.6385L21.6041 32.637L21.5979 32.6332L21.5761 32.6196C21.5574 32.6078 21.5303 32.5908 21.4956 32.5686C21.4261 32.5243 21.3256 32.4594 21.1986 32.375C20.9446 32.2065 20.584 31.9602 20.1523 31.6458C19.2902 31.0182 18.1379 30.1144 16.9824 29.0125C15.8293 27.9129 14.6559 26.5996 13.7669 25.1503C12.8793 23.7031 12.25 22.0789 12.25 20.3721C12.25 17.6092 13.2689 15.3086 15.0334 13.7045C16.7906 12.1072 19.2311 11.25 22 11.25C27.6334 11.25 31.75 15.2726 31.75 20.8372C31.75 24.2277 29.2721 27.212 27.0023 29.2592C25.8444 30.3037 24.6899 31.1494 23.8265 31.7334C23.394 32.026 23.0328 32.2541 22.7782 32.4098C22.6509 32.4878 22.5501 32.5477 22.4804 32.5886C22.4455 32.609 22.4183 32.6247 22.3995 32.6356L22.3774 32.6482L22.3712 32.6517L22.3693 32.6528C22.3691 32.6529 22.3683 32.6534 22 32ZM22 32L22.3683 32.6534C22.1307 32.7873 21.8388 32.7814 21.6065 32.6385L22 32Z" fill="#191919"/>
<path fill-rule="evenodd" clip-rule="evenodd" d="M17.7505 17.293C18.1411 17.1551 18.5695 17.3599 18.7074 17.7505L20.0002 21.4125L21.293 17.7505C21.3988 17.4507 21.6822 17.2502 22.0002 17.2502C22.3182 17.2502 22.6016 17.4507 22.7074 17.7505L24.0002 21.4125L25.293 17.7505C25.4309 17.3599 25.8593 17.1551 26.2499 17.293C26.6405 17.4309 26.8453 17.8593 26.7074 18.2499L24.7074 23.9151C24.6016 24.2149 24.3182 24.4154 24.0002 24.4154C23.6822 24.4154 23.3988 24.2149 23.293 23.9151L22.0002 20.2532L20.7074 23.9151C20.6016 24.2149 20.3182 24.4154 20.0002 24.4154C19.6822 24.4154 19.3988 24.2149 19.293 23.9151L17.293 18.2499C17.1551 17.8593 17.3599 17.4309 17.7505 17.293Z" fill="#191919"/>
<path fill-rule="evenodd" clip-rule="evenodd" d="M24.2812 21.2578C24.2812 20.8436 24.617 20.5078 25.0312 20.5078H27.0003C27.4145 20.5078 27.7503 20.8436 27.7503 21.2578C27.7503 21.672 27.4145 22.0078 27.0003 22.0078H25.0312C24.617 22.0078 24.2812 21.672 24.2812 21.2578Z" fill="#191919"/>
<path fill-rule="evenodd" clip-rule="evenodd" d="M16.25 21.2578C16.25 20.8436 16.5858 20.5078 17 20.5078H19.1317C19.5459 20.5078 19.8817 20.8436 19.8817 21.2578C19.8817 21.672 19.5459 22.0078 19.1317 22.0078H17C16.5858 22.0078 16.25 21.672 16.25 21.2578Z" fill="#191919"/>
</svg>
