<svg width="44" height="44" viewBox="0 0 44 44" fill="none" xmlns="http://www.w3.org/2000/svg">
<path fill-rule="evenodd" clip-rule="evenodd" d="M23.059 13.1719L24.1069 14.2161C24.8252 14.9319 25.7642 15.3841 26.7716 15.4994L28.2415 15.6676C29.0625 15.7616 29.6529 16.5019 29.5618 17.3232L29.3987 18.7937C29.287 19.8015 29.5189 20.8176 30.0569 21.6771L30.8418 22.9312C31.2802 23.6316 31.0695 24.5548 30.3706 24.9957L29.1193 25.785C28.2616 26.326 27.6118 27.1408 27.2752 28.0973L26.7841 29.4929C26.5098 30.2724 25.6567 30.6832 24.8763 30.4117L23.479 29.9255C22.5213 29.5923 21.4791 29.5923 20.5214 29.9255L19.1241 30.4117C18.3436 30.6832 17.4905 30.2724 17.2162 29.4929L16.7251 28.0973C16.3885 27.1408 15.7388 26.326 14.8811 25.785L13.6298 24.9957C12.9309 24.5548 12.7202 23.6316 13.1586 22.9312L13.9435 21.6771C14.4815 20.8176 14.7134 19.8015 14.6016 18.7937L14.4386 17.3232C14.3475 16.5019 14.9379 15.7616 15.7589 15.6676L17.2287 15.4994C18.2362 15.3841 19.1751 14.9319 19.8934 14.2161L20.9414 13.1719C21.5267 12.5885 22.4736 12.5885 23.059 13.1719ZM19.8826 12.1093C21.0533 10.9427 22.9471 10.9427 24.1178 12.1093L25.1657 13.1536C25.6446 13.6308 26.2706 13.9323 26.9422 14.0091L28.4121 14.1774C30.0541 14.3653 31.2348 15.8459 31.0527 17.4886L30.8896 18.959C30.8151 19.6309 30.9697 20.3083 31.3283 20.8813L32.1132 22.1353C32.9901 23.5363 32.5687 25.3826 31.1708 26.2644L29.9195 27.0537C29.3478 27.4143 28.9146 27.9575 28.6902 28.5952L28.1991 29.9908C27.6505 31.5498 25.9443 32.3715 24.3833 31.8284L22.986 31.3422C22.3476 31.12 21.6528 31.12 21.0143 31.3422L19.617 31.8284C18.0561 32.3715 16.3499 31.5498 15.8013 29.9908L15.3102 28.5952C15.0858 27.9575 14.6526 27.4143 14.0808 27.0537L12.8295 26.2644C11.4317 25.3826 11.0103 23.5363 11.8871 22.1353L12.672 20.8813C13.0307 20.3083 13.1853 19.6309 13.1108 18.959L12.9477 17.4886C12.7655 15.8459 13.9463 14.3653 15.5883 14.1774L17.0582 14.0091C17.7298 13.9323 18.3558 13.6308 18.8346 13.1536L19.8826 12.1093ZM25.5002 21.9992C25.5002 23.9322 23.9332 25.4992 22.0002 25.4992C20.0672 25.4992 18.5002 23.9322 18.5002 21.9992C18.5002 20.0662 20.0672 18.4992 22.0002 18.4992C23.9332 18.4992 25.5002 20.0662 25.5002 21.9992ZM27.0002 21.9992C27.0002 24.7606 24.7616 26.9992 22.0002 26.9992C19.2388 26.9992 17.0002 24.7606 17.0002 21.9992C17.0002 19.2377 19.2388 16.9992 22.0002 16.9992C24.7616 16.9992 27.0002 19.2377 27.0002 21.9992Z" fill="#191919"/>
</svg>
