<svg width="44" height="44" viewBox="0 0 44 44" fill="none" xmlns="http://www.w3.org/2000/svg">
<path fill-rule="evenodd" clip-rule="evenodd" d="M14.25 23C14.25 22.0335 15.0335 21.25 16 21.25H18.5C18.9142 21.25 19.25 21.5858 19.25 22C19.25 22.4142 18.9142 22.75 18.5 22.75H16C15.8619 22.75 15.75 22.8619 15.75 23V30C15.75 30.1381 15.8619 30.25 16 30.25H28C28.1381 30.25 28.25 30.1381 28.25 30V23C28.25 22.8619 28.1381 22.75 28 22.75H26C25.5858 22.75 25.25 22.4142 25.25 22C25.25 21.5858 25.5858 21.25 26 21.25H28C28.9665 21.25 29.75 22.0335 29.75 23V30C29.75 30.9665 28.9665 31.75 28 31.75H16C15.0335 31.75 14.25 30.9665 14.25 30V23Z" fill="#191919"/>
<path fill-rule="evenodd" clip-rule="evenodd" d="M21.4697 12.4697C21.7626 12.1768 22.2374 12.1768 22.5303 12.4697L25.5303 15.4697C25.8232 15.7626 25.8232 16.2374 25.5303 16.5303C25.2374 16.8232 24.7626 16.8232 24.4697 16.5303L22.75 14.8107V23C22.75 23.4142 22.4142 23.75 22 23.75C21.5858 23.75 21.25 23.4142 21.25 23V14.8107L19.5303 16.5303C19.2374 16.8232 18.7626 16.8232 18.4697 16.5303C18.1768 16.2374 18.1768 15.7626 18.4697 15.4697L21.4697 12.4697Z" fill="#191919"/>
</svg>
