<svg width="40" height="40" viewBox="0 0 40 40" fill="none" xmlns="http://www.w3.org/2000/svg">
<path d="M4 15H32V28C32 29.6569 30.6569 31 29 31H7C5.34315 31 4 29.6569 4 28V15Z" fill="#D9DFE4"/>
<path d="M26.1896 26H29.3296C29.6872 26 29.9655 26.3108 29.926 26.6663L29.2462 32.7844C29.1785 33.3938 29.9606 33.7004 30.325 33.2073L36.7929 24.4566C37.0857 24.0606 36.8029 23.5 36.3104 23.5H33.6343C33.2898 23.5 33.0161 23.2106 33.0352 22.8667L33.3887 16.5038C33.4217 15.909 32.6612 15.6348 32.3071 16.1139L25.7071 25.0434C25.4143 25.4394 25.6971 26 26.1896 26Z" fill="#FFA800"/>
<path d="M4 12C4 10.3431 5.34315 9 7 9H29C30.6569 9 32 10.3431 32 12V15H4V12Z" fill="#889099"/>
<rect x="8" y="20" width="6" height="4" rx="1" fill="#889099"/>
</svg>
