<svg width="40" height="40" viewBox="0 0 40 40" fill="none" xmlns="http://www.w3.org/2000/svg">
<path d="M6 7C6 5.34315 7.34315 4 9 4H31C32.6569 4 34 5.34315 34 7V34.2026C34 34.9774 33.5042 35.6653 32.7692 35.9103L31.7635 36.2455C31.2777 36.4074 30.7459 36.3548 30.3012 36.1007L28.3364 34.9779C27.8139 34.6794 27.1767 34.6617 26.6384 34.9308L24.305 36.0975C23.7982 36.3509 23.2018 36.3509 22.695 36.0975L20.305 34.9025C19.7982 34.6491 19.2018 34.6491 18.695 34.9025L16.3616 36.0692C15.8233 36.3383 15.1861 36.3206 14.6636 36.0221L12.8931 35.0103C12.3397 34.6941 11.6603 34.6941 11.1069 35.0103L9.2546 36.0688C8.77787 36.3412 8.20286 36.3811 7.69305 36.1772L7.1315 35.9526C6.44811 35.6792 6 35.0174 6 34.2813V7Z" fill="#009F83"/>
<path fill-rule="evenodd" clip-rule="evenodd" d="M13.1169 13.8567C13.7495 13.6334 14.4435 13.9652 14.6668 14.5978L16.7608 20.5293L18.8548 14.5978C19.0262 14.1122 19.4853 13.7874 20.0003 13.7874C20.5153 13.7874 20.9744 14.1122 21.1458 14.5978L23.2398 20.5293L25.3338 14.5978C25.5571 13.9652 26.2511 13.6334 26.8837 13.8567C27.5164 14.0801 27.8482 14.774 27.6249 15.4067L24.3853 24.5829C24.2139 25.0686 23.7548 25.3934 23.2398 25.3934C22.7248 25.3934 22.2657 25.0686 22.0943 24.5829L20.0003 18.6515L17.9063 24.5829C17.7349 25.0686 17.2758 25.3934 16.7608 25.3934C16.2458 25.3934 15.7867 25.0686 15.6153 24.5829L12.3758 15.4067C12.1524 14.774 12.4842 14.0801 13.1169 13.8567Z" fill="white"/>
<path fill-rule="evenodd" clip-rule="evenodd" d="M23.6951 20.2793C23.6951 19.6083 24.239 19.0645 24.9099 19.0645H28.0993C28.7702 19.0645 29.3141 19.6083 29.3141 20.2793C29.3141 20.9502 28.7702 21.4941 28.0993 21.4941H24.9099C24.239 21.4941 23.6951 20.9502 23.6951 20.2793Z" fill="white"/>
<path fill-rule="evenodd" clip-rule="evenodd" d="M10.6863 20.2793C10.6863 19.6083 11.2302 19.0645 11.9011 19.0645H15.3539C16.0248 19.0645 16.5687 19.6083 16.5687 20.2793C16.5687 20.9502 16.0248 21.4941 15.3539 21.4941H11.9011C11.2302 21.4941 10.6863 20.9502 10.6863 20.2793Z" fill="white"/>
</svg>
