<svg width="40" height="40" viewBox="0 0 40 40" fill="none" xmlns="http://www.w3.org/2000/svg">
<path fill-rule="evenodd" clip-rule="evenodd" d="M21.3 11.6992L21.3 33.2992L18.7 33.2992L18.7 11.6992L21.3 11.6992Z" fill="#1FB88A"/>
<path fill-rule="evenodd" clip-rule="evenodd" d="M11.7 32.9992C11.7 32.2812 12.282 31.6992 13 31.6992H27C27.7179 31.6992 28.3 32.2812 28.3 32.9992C28.3 33.7172 27.7179 34.2992 27 34.2992H13C12.282 34.2992 11.7 33.7172 11.7 32.9992Z" fill="#1FB88A"/>
<path fill-rule="evenodd" clip-rule="evenodd" d="M30.7488 8.13808C30.9484 8.82774 30.5512 9.54865 29.8615 9.74829L10.8615 15.2483C10.1719 15.4479 9.45095 15.0507 9.25131 14.361C9.05167 13.6714 9.44891 12.9505 10.1386 12.7508L29.1386 7.25082C29.8282 7.05118 30.5491 7.44842 30.7488 8.13808Z" fill="#1FB88A"/>
<path d="M16 22.5C16 26 13.3137 28.5 10 28.5C6.68629 28.5 4 25.8137 4 22.5C4 19.3422 7.73946 14.9379 9.31409 13.2232C9.68766 12.8165 10.3123 12.8165 10.6859 13.2232C12.2605 14.9379 16 19.3422 16 22.5Z" fill="#007862"/>
<path d="M36 17C36 20.5 33.3137 23 30 23C26.6863 23 24 20.3137 24 17C24 13.8422 27.7395 9.43785 29.3141 7.72324C29.6877 7.31647 30.3123 7.31647 30.6859 7.72324C32.2605 9.43785 36 13.8422 36 17Z" fill="#1FB88A"/>
</svg>
