<svg width="40" height="40" viewBox="0 0 40 40" fill="none" xmlns="http://www.w3.org/2000/svg">
<path fill-rule="evenodd" clip-rule="evenodd" d="M20 3.5C20.8284 3.5 21.5 4.17157 21.5 5V32.5C21.5 34.7091 19.7091 36.5 17.5 36.5C15.2909 36.5 13.5 34.7091 13.5 32.5V32.129C13.5 31.3006 14.1716 30.629 15 30.629C15.8284 30.629 16.5 31.3006 16.5 32.129V32.5C16.5 33.0523 16.9477 33.5 17.5 33.5C18.0523 33.5 18.5 33.0523 18.5 32.5V5C18.5 4.17157 19.1716 3.5 20 3.5Z" fill="#B2BAC2"/>
<path fill-rule="evenodd" clip-rule="evenodd" d="M34.9977 22.6905C35.1798 22.8623 35.5 22.7503 35.5 22.5C35.5 13.9396 28.5604 7 20 7C11.4396 7 4.5 13.9396 4.5 22.5C4.5 22.7503 4.8202 22.8623 5.00231 22.6905C6.10167 21.6538 7.70922 21 9.5 21C11.1587 21 12.6602 21.5609 13.7463 22.4675C14.2944 22.9251 15.2056 22.9251 15.7537 22.4675C16.8398 21.5609 18.3413 21 20 21C21.6587 21 23.1602 21.5609 24.2463 22.4675C24.7944 22.9251 25.7056 22.9251 26.2537 22.4675C27.3398 21.5609 28.8413 21 30.5 21C32.2908 21 33.8983 21.6538 34.9977 22.6905Z" fill="#4E74FB"/>
</svg>
