<svg width="40" height="40" viewBox="0 0 40 40" fill="none" xmlns="http://www.w3.org/2000/svg">
<rect width="40" height="40" rx="14" fill="#008375"/>
<g clip-path="url(#clip0_701_16985)">
<path d="M23.8294 21.9165C23.7783 21.61 23.6932 21.3148 23.5683 21.0366C23.1823 20.1964 22.6373 19.4924 21.8254 19.0213C20.5651 18.2832 19.0437 18.2889 17.7948 19.044C17.2327 19.3846 16.7672 19.8728 16.4663 20.4632C16.3641 20.6619 16.2847 20.872 16.2165 21.0877C15.8873 22.1323 15.8986 23.5345 16.4947 24.4882C16.6877 24.8005 16.9659 25.0673 17.3065 25.1979C17.6471 25.3284 18.0559 25.3171 18.3625 25.1184C18.7598 24.8629 18.828 24.3747 18.7542 23.9376C18.6633 23.3869 18.5895 22.8362 18.7939 22.2912C18.862 22.1152 18.9529 21.9506 19.0834 21.82C19.1629 21.7406 19.2594 21.6781 19.3616 21.627C19.5773 21.5248 19.8215 21.4737 20.0542 21.5135C20.4686 21.5816 20.8036 21.8995 20.9909 22.2742C21.1726 22.6489 21.2237 23.0747 21.2407 23.4948C21.3259 25.3114 20.8944 27.2019 20.4289 28.9447C20.3835 29.1264 20.3324 29.3024 20.2813 29.484C20.2416 29.6203 20.1734 29.8019 20.2586 29.9325C20.2983 29.9893 20.3551 30.029 20.4175 30.0574C20.69 30.1653 20.9058 30.0006 21.0874 29.819C22.1547 28.746 22.836 27.3608 23.3072 25.9359C23.4831 25.4022 23.6307 24.8629 23.7329 24.3122C23.8862 23.5686 23.9657 22.7113 23.8294 21.9165Z" fill="white"/>
<path d="M31.1096 13.5019C31.1096 13.2294 30.8655 13.0477 30.61 13.0591C30.3432 13.0648 30.0991 13.201 29.855 13.2919C25.16 15.0744 19.869 15.4151 14.9187 14.6998C14.0728 14.5749 13.2156 14.4102 12.364 14.274C11.836 14.1945 11.3081 14.0753 10.7744 14.0355C10.3146 14.0015 9.74689 13.9845 9.37789 14.3024C8.88966 14.7225 8.92372 15.5229 9.2019 16.0509C9.53684 16.6867 10.1159 17.1579 10.7233 17.5212C11.3138 17.8732 12.012 18.2422 12.716 18.2025C14.6064 18.0833 16.4912 17.9016 18.3703 17.6575C21.5722 17.2431 24.933 16.8457 27.9418 15.6081C28.9239 15.1993 29.8947 14.6941 30.7406 14.0412C30.8882 13.9163 31.1096 13.7233 31.1096 13.5019Z" fill="white"/>
<path d="M18.0057 11.8905C18.0057 12.9123 18.8345 13.7355 19.8564 13.7355C20.8726 13.7355 21.7014 12.9066 21.7014 11.8905C21.7014 11.7372 21.6674 11.5839 21.5992 11.4476C21.4403 11.1127 21.2643 10.9481 21.2813 10.545C21.304 10.0057 20.6058 10 20.2311 10C19.8223 10 19.3909 10.0568 19.0219 10.2441C18.7267 10.3917 18.4769 10.6188 18.2952 10.897C18.1079 11.1808 18.0114 11.5158 18 11.8507C18.0057 11.8677 18.0057 11.8791 18.0057 11.8905Z" fill="white"/>
</g>
<defs>
<clipPath id="clip0_701_16985">
<rect width="24" height="24" fill="white" transform="translate(8 8)"/>
</clipPath>
</defs>
</svg>
