<svg width="24" height="24" viewBox="0 0 24 24" fill="none" xmlns="http://www.w3.org/2000/svg">
<path d="M11.7216 2.5717C11.8224 2.32076 12.1776 2.32076 12.2784 2.5717L14.22 7.40665C14.4631 8.0122 15.0315 8.42511 15.6825 8.46926L20.8808 8.82173C21.1506 8.84002 21.2604 9.17788 21.0529 9.35126L17.0545 12.6919C16.5538 13.1103 16.3367 13.7784 16.4959 14.4112L17.767 19.464C17.833 19.7263 17.5456 19.9351 17.3166 19.7913L12.9039 17.021C12.3512 16.674 11.6488 16.674 11.0961 17.021L6.68341 19.7913C6.45439 19.9351 6.16699 19.7263 6.23296 19.464L7.5041 14.4112C7.66331 13.7784 7.44622 13.1103 6.94546 12.6919L2.94713 9.35126C2.73961 9.17788 2.84939 8.84002 3.11918 8.82173L8.31748 8.46926C8.96853 8.42511 9.53686 8.0122 9.78003 7.40665L11.7216 2.5717Z" stroke="#CCCCCC" stroke-width="1.4"/>
</svg>
