<svg width="24" height="24" viewBox="0 0 24 24" fill="none" xmlns="http://www.w3.org/2000/svg">
<path d="M11.072 2.31085C11.4079 1.47438 12.5921 1.47438 12.928 2.31085L14.8696 7.1458C15.0126 7.502 15.3469 7.74489 15.7299 7.77086L20.9282 8.12333C21.8275 8.18431 22.1934 9.3105 21.5017 9.88844L17.5034 13.2291C17.2088 13.4752 17.0811 13.8682 17.1747 14.2404L18.4459 19.2932C18.6658 20.1674 17.7078 20.8634 16.9444 20.3841L12.5317 17.6138C12.2066 17.4097 11.7934 17.4097 11.4683 17.6138L7.05561 20.3841C6.29219 20.8634 5.3342 20.1674 5.55411 19.2932L6.82525 14.2404C6.9189 13.8682 6.79121 13.4752 6.49664 13.2291L2.49831 9.88844C1.80658 9.3105 2.1725 8.18431 3.07183 8.12333L8.27012 7.77086C8.6531 7.74489 8.9874 7.502 9.13045 7.1458L11.072 2.31085Z" fill="#FFE500"/>
</svg>
