<svg width="57" height="44" viewBox="0 0 57 44" fill="none" xmlns="http://www.w3.org/2000/svg">
<path fill-rule="evenodd" clip-rule="evenodd" d="M0 20.6212C0 16.9647 3.80535 14 8.50005 14C13.1944 14 17 16.9647 17 20.6212C17 24.2779 13.1944 27.2425 8.50005 27.2425C8.13933 27.2425 7.78481 27.2227 7.43597 27.1888L3.30223 29.9399C3.0349 30.1178 2.68678 29.8731 2.77009 29.5662L3.71312 26.0923C1.47183 24.9 0 22.8953 0 20.6212Z" fill="#111111"/>
<path fill-rule="evenodd" clip-rule="evenodd" d="M25.2395 27.057C25.557 27.0881 25.8825 27.1036 26.216 27.1036C27.0734 27.1036 27.8514 26.9404 28.55 26.614C29.2646 26.3031 29.8759 25.8601 30.384 25.285C30.8921 24.6943 31.289 23.987 31.5748 23.1632C31.8606 22.3394 32.0035 21.4145 32.0035 20.3886C32.0035 19.4093 31.9083 18.5311 31.7177 17.7539C31.5272 16.9767 31.2334 16.3161 30.8365 15.772C30.4554 15.228 29.9632 14.8161 29.3598 14.5363C28.7723 14.2409 28.0658 14.0933 27.2401 14.0933C26.3827 14.0933 25.6682 14.2254 25.0965 14.4896C24.5408 14.7539 24.0565 15.0881 23.6437 15.4922L23.2626 14.4663H21V31.487H24.1915V26.8472C24.5885 26.956 24.9378 27.0259 25.2395 27.057ZM25.1204 16.7513C25.4856 16.658 25.8269 16.6114 26.1445 16.6114C26.6685 16.6114 27.0972 16.7047 27.4306 16.8912C27.7641 17.0622 28.0261 17.3109 28.2166 17.6373C28.423 17.9637 28.5659 18.3601 28.6453 18.8264C28.7247 19.2927 28.7644 19.8135 28.7644 20.3886C28.7644 21.7254 28.5024 22.7902 27.9784 23.5829C27.4703 24.3601 26.5891 24.7487 25.3347 24.7487H24.6678C24.4614 24.7332 24.3026 24.7098 24.1915 24.6788V17.0544C24.4614 16.9301 24.771 16.829 25.1204 16.7513ZM34.8419 20.272C33.9686 20.9249 33.5319 21.9041 33.5319 23.2098C33.5319 24.4378 33.8574 25.386 34.5084 26.0544C35.1594 26.7383 36.1042 27.0803 37.3427 27.0803C37.8984 27.0803 38.5018 26.9715 39.1528 26.7539C39.8196 26.5518 40.4786 26.2021 41.1296 25.7047L41.4868 26.7539H43.7257V18.8264C43.7257 17.2254 43.3128 16.0363 42.4872 15.2591C41.6615 14.4819 40.4389 14.0933 38.8193 14.0933C37.9937 14.0933 37.1601 14.2098 36.3185 14.443C35.4929 14.6762 34.7783 14.9948 34.175 15.399L35.0562 17.544C35.6278 17.2487 36.1836 17.0389 36.7234 16.9145C37.2791 16.7902 37.8508 16.728 38.4383 16.728C38.9146 16.728 39.2957 16.7746 39.5815 16.8679C39.8832 16.9611 40.1213 17.101 40.296 17.2876C40.4706 17.4585 40.5897 17.6762 40.6532 17.9404C40.7168 18.2047 40.7485 18.5078 40.7485 18.8497V19.2694H38.7479C37.033 19.2694 35.731 19.6036 34.8419 20.272ZM39.5577 24.3523C39.0654 24.5544 38.5415 24.6554 37.9857 24.6554C37.4617 24.6554 37.0648 24.5233 36.7949 24.2591C36.5408 23.9948 36.4138 23.6373 36.4138 23.1865C36.4138 21.9119 37.2871 21.2746 39.0337 21.2746H40.7485V23.6762C40.4627 23.9249 40.0658 24.1503 39.5577 24.3523ZM51.1172 29.4119C51.8634 28.3394 52.5224 27.0259 53.094 25.4715L57 14.886L53.8561 14L51.0219 23.6995L48.1638 14.0233L44.9962 14.8627L49.4261 26.8238C49.0609 27.4922 48.6561 28.0829 48.2115 28.5959C47.7669 29.1088 47.2032 29.6529 46.5205 30.228L48.4973 32C49.4976 31.3627 50.3709 30.5 51.1172 29.4119Z" fill="#111111"/>
</svg>
