<svg width="16" height="16" viewBox="0 0 16 16" fill="none" xmlns="http://www.w3.org/2000/svg">
<rect width="16" height="16" rx="5.6" fill="#008375"/>
<g clip-path="url(#clip0_1907_53989)">
<g clip-path="url(#clip1_1907_53989)">
<path d="M9.53168 8.76622C9.51124 8.6436 9.47718 8.52552 9.42722 8.41425C9.27281 8.07817 9.05481 7.79659 8.73008 7.60811C8.22596 7.3129 7.61738 7.31517 7.1178 7.61719C6.89299 7.75344 6.70679 7.94873 6.58643 8.1849C6.54556 8.26437 6.51377 8.3484 6.48652 8.43469C6.35481 8.85252 6.35935 9.41341 6.59779 9.7949C6.67499 9.9198 6.78626 10.0265 6.92251 10.0788C7.05876 10.131 7.22226 10.1264 7.34488 10.047C7.50384 9.94478 7.53109 9.74949 7.50157 9.57463C7.46524 9.35437 7.43572 9.1341 7.51747 8.9161C7.54472 8.8457 7.58105 8.77985 7.63328 8.72762C7.66507 8.69583 7.70367 8.67085 7.74455 8.65041C7.83084 8.60954 7.92848 8.5891 8.02159 8.605C8.18736 8.63225 8.32133 8.75941 8.39627 8.90929C8.46894 9.05916 8.48937 9.22947 8.49619 9.39751C8.53025 10.1242 8.35767 10.8804 8.17146 11.5775C8.15329 11.6502 8.13286 11.7206 8.11242 11.7932C8.09652 11.8477 8.06927 11.9204 8.10334 11.9726C8.11923 11.9953 8.14194 12.0112 8.16692 12.0226C8.27592 12.0657 8.36221 11.9999 8.43488 11.9272C8.86179 11.498 9.13429 10.9439 9.32276 10.374C9.39316 10.1605 9.4522 9.94478 9.49307 9.72451C9.55439 9.42703 9.58618 9.08414 9.53168 8.76622Z" fill="white"/>
<path d="M12.4437 5.39998C12.4437 5.29098 12.346 5.21832 12.2439 5.22286C12.1371 5.22513 12.0395 5.27963 11.9418 5.31596C10.0639 6.029 7.94747 6.16525 5.96732 5.87912C5.62897 5.82916 5.28608 5.76331 4.94546 5.70881C4.73427 5.67702 4.52308 5.62933 4.30963 5.61344C4.12569 5.59981 3.89861 5.593 3.75101 5.72017C3.55572 5.88821 3.56934 6.20839 3.68061 6.41958C3.81459 6.67391 4.04621 6.86239 4.28919 7.00772C4.52536 7.14851 4.80467 7.29611 5.08625 7.28022C5.84243 7.23253 6.59634 7.15986 7.34798 7.06222C8.62872 6.89645 9.97304 6.73749 11.1766 6.24245C11.5694 6.07895 11.9577 5.87685 12.2961 5.61571C12.3551 5.56575 12.4437 5.48854 12.4437 5.39998Z" fill="white"/>
<path d="M7.20222 4.75618C7.20222 5.16493 7.53376 5.4942 7.94251 5.4942C8.34898 5.4942 8.68052 5.16266 8.68052 4.75618C8.68052 4.69487 8.6669 4.63356 8.63965 4.57906C8.57606 4.44508 8.50567 4.37923 8.51248 4.218C8.52157 4.00227 8.24225 4 8.09238 4C7.92888 4 7.7563 4.02271 7.6087 4.09765C7.49062 4.15669 7.3907 4.24752 7.31803 4.35879C7.2431 4.47233 7.20449 4.60631 7.19995 4.74029C7.20222 4.7471 7.20222 4.75164 7.20222 4.75618Z" fill="white"/>
</g>
</g>
<defs>
<clipPath id="clip0_1907_53989">
<rect width="9.6" height="9.6" fill="white" transform="translate(3.19995 3.19922)"/>
</clipPath>
<clipPath id="clip1_1907_53989">
<rect width="9.6" height="9.6" fill="white" transform="translate(3.19995 3.19922)"/>
</clipPath>
</defs>
</svg>
