<svg width="44" height="44" viewBox="0 0 44 44" fill="none" xmlns="http://www.w3.org/2000/svg">
<path fill-rule="evenodd" clip-rule="evenodd" d="M28.5051 14.5058C28.7784 14.2324 29.2217 14.2324 29.495 14.5058C29.7684 14.7792 29.7684 15.2224 29.495 15.4958L22.99 22.0007L29.4951 28.5058C29.7685 28.7792 29.7685 29.2224 29.4951 29.4958C29.2218 29.7691 28.7785 29.7691 28.5052 29.4958L22.0001 22.9907L15.495 29.4958C15.2217 29.7691 14.7784 29.7691 14.5051 29.4958C14.2317 29.2224 14.2317 28.7792 14.5051 28.5058L21.0101 22.0007L14.5052 15.4958C14.2318 15.2224 14.2318 14.7792 14.5052 14.5058C14.7785 14.2324 15.2218 14.2324 15.4951 14.5058L22.0001 21.0108L28.5051 14.5058Z" fill="white"/>
</svg>
