<svg width="44" height="44" viewBox="0 0 44 44" fill="none" xmlns="http://www.w3.org/2000/svg">
<path fill-rule="evenodd" clip-rule="evenodd" d="M22 12C21.5858 12 21.25 12.3358 21.25 12.75V14.0464C18.2903 14.4155 16 16.9403 16 20V27.5H14.75C14.3358 27.5 14 27.8358 14 28.25C14 28.6642 14.3358 29 14.75 29H16H17.5H18.4367C18.8729 30.5576 20.3031 31.7 22 31.7C23.6969 31.7 25.127 30.5576 25.5633 29H26.5H28H29.25C29.6642 29 30 28.6642 30 28.25C30 27.8358 29.6642 27.5 29.25 27.5H28V20C28 16.9403 25.7097 14.4155 22.75 14.0464V12.75C22.75 12.3358 22.4142 12 22 12ZM26.5 20V27.5H17.5V20C17.5 17.5147 19.5147 15.5 22 15.5C24.4853 15.5 26.5 17.5147 26.5 20ZM22 30.3C21.0881 30.3 20.3002 29.7693 19.9282 29H24.0718C23.6998 29.7693 22.9119 30.3 22 30.3Z" fill="#191919"/>
</svg>
